<svg width="37" height="37" viewBox="0 0 37 37" fill="none" xmlns="http://www.w3.org/2000/svg">
<path fill-rule="evenodd" clip-rule="evenodd" d="M16.172 19.4229L19.002 21.4869L21.73 19.4795L27.845 25.9147C27.684 25.9701 27.512 26 27.333 26H10.667C10.447 26 10.237 25.9541 10.044 25.872L16.172 19.4229ZM29 14.1344V24.2219C29 24.4853 28.946 24.7349 28.85 24.96L22.856 18.6517L29 14.1344ZM9 14.1909L15.042 18.5984L9.106 24.8469C9.0357 24.6471 8.99979 24.4353 9 24.2219V14.192V14.1909ZM27.333 10C28.253 10 29 10.7957 29 11.7781V12.4032L18.998 19.7579L9 12.464V11.7781C9 10.7968 9.746 10 10.667 10H27.333Z" fill="#FCFCFE"/>
<circle cx="18.5" cy="18.5" r="18" stroke="#FCFCFE"/>
</svg>
