<svg width="238" height="55" viewBox="0 0 238 55" fill="none" xmlns="http://www.w3.org/2000/svg">
<g clip-path="url(#clip0_2_644)">
<path d="M133.843 18.5867C133.843 15.8671 133.841 13.1447 133.846 10.4251C133.849 8.63139 134.913 7.42637 136.481 7.4236C138.065 7.41808 139.129 8.60099 139.131 10.403C139.137 15.845 139.137 21.2842 139.131 26.7261C139.129 28.5281 138.07 29.7221 136.497 29.7249C134.919 29.7304 133.852 28.5364 133.846 26.7482C133.838 24.0286 133.843 21.3063 133.843 18.5867Z" fill="#FCFCFE"/>
<path d="M52.7594 18.4816C52.7594 15.7896 52.7567 13.0977 52.7594 10.4057C52.7621 8.67833 53.8153 7.45949 55.3199 7.42356C56.9203 7.38487 58.0145 8.52632 58.02 10.3449C58.0419 15.8283 58.0419 21.3117 58.0228 26.7924C58.0173 28.6082 56.9148 29.7607 55.3227 29.7248C53.788 29.6916 52.7649 28.517 52.7594 26.7537C52.7539 23.9982 52.7594 21.2399 52.7594 18.4816Z" fill="#FCFCFE"/>
<path d="M69.8325 7.42073C72.0757 7.42073 74.3162 7.41521 76.5594 7.4235C78.2035 7.42902 79.3087 8.41847 79.3716 9.91646C79.4345 11.4089 78.3102 12.6057 76.6907 12.6858C75.5882 12.7411 74.4803 12.7411 73.3778 12.6858C72.6666 12.6499 72.4422 12.8433 72.4477 13.6006C72.486 17.8652 72.4669 22.1325 72.4641 26.3999C72.4641 26.9222 72.4942 27.4501 72.3219 27.9587C71.9115 29.1665 70.7489 29.8878 69.496 29.7082C68.1938 29.523 67.2063 28.3622 67.2035 26.9443C67.1926 22.677 67.198 18.4124 67.198 14.1451C67.198 13.9489 67.1734 13.7471 67.2035 13.5564C67.3102 12.8655 67.0448 12.6443 66.3527 12.683C65.2831 12.7411 64.208 12.7217 63.1356 12.6913C61.4095 12.6416 60.2742 11.5471 60.2878 9.99385C60.3015 8.41847 61.4259 7.42073 63.2013 7.41797C65.4144 7.41797 67.6248 7.42073 69.8325 7.42073Z" fill="#FCFCFE"/>
<path d="M81.6367 18.4263C81.6367 15.9637 81.6285 13.5011 81.6394 11.0413C81.6504 8.74184 82.9279 7.40139 85.2012 7.43456C87.8247 7.47325 90.4728 7.14712 93.0689 7.75516C97.4268 8.77777 99.9627 11.7323 100.291 16.2346C100.422 18.031 100.477 19.8358 100.154 21.6323C99.3143 26.3363 96.141 29.2604 91.4221 29.5092C89.2171 29.6253 87.0013 29.5921 84.7936 29.5479C82.9608 29.5092 81.6668 28.0692 81.6449 26.1097C81.6148 23.5476 81.6367 20.9883 81.6367 18.4263ZM86.9001 18.418C86.9001 20.1536 86.9137 21.8893 86.8919 23.625C86.8864 24.1418 86.9794 24.4099 87.5785 24.3795C88.5497 24.3325 89.5235 24.3961 90.4974 24.3602C92.913 24.2662 94.5161 22.9479 94.9483 20.629C95.2191 19.1753 95.2328 17.6856 94.9483 16.2346C94.5735 14.322 93.4191 13.1308 91.474 12.7411C90.1199 12.4675 88.7576 12.6526 87.4034 12.5808C86.8317 12.5504 86.9055 12.9539 86.9055 13.3077C86.9001 15.0102 86.9001 16.7127 86.9001 18.418Z" fill="#FCFCFE"/>
<path d="M113.709 18.573C113.709 15.9501 113.706 13.3245 113.709 10.7016C113.712 8.6315 114.853 7.40437 116.877 7.43753C119.569 7.48175 122.277 7.1501 124.947 7.61442C128.887 8.29984 131.36 11.5805 131.067 15.5687C130.758 19.7697 127.954 22.633 123.916 22.821C122.521 22.8845 121.123 22.8845 119.728 22.8541C119.12 22.8403 118.94 23.0448 118.964 23.639C119.005 24.6865 118.989 25.7368 118.973 26.787C118.945 28.5338 117.799 29.7637 116.251 29.7277C114.738 29.6918 113.715 28.4951 113.712 26.7428C113.706 24.0177 113.709 21.2953 113.709 18.573ZM118.975 15.0297C118.975 15.8147 118.978 16.5996 118.973 17.3845C118.97 17.7328 118.975 18.0451 119.462 18.0285C120.819 17.9787 122.187 18.1639 123.533 17.9373C125.054 17.6775 125.719 16.8014 125.732 15.1956C125.746 13.5704 125.024 12.6031 123.53 12.3323C122.181 12.089 120.816 12.2825 119.46 12.2245C119.06 12.2079 118.97 12.4262 118.975 12.7717C118.984 13.5235 118.978 14.278 118.975 15.0297Z" fill="#FCFCFE"/>
<path d="M143.208 18.6668C143.208 16.0108 143.202 13.352 143.21 10.696C143.216 8.66735 144.403 7.40429 146.406 7.43469C149.097 7.47338 151.808 7.14725 154.478 7.60605C158.5 8.29424 160.896 11.6081 160.587 15.8616C160.303 19.7641 157.384 22.6329 153.453 22.8181C152.057 22.8844 150.659 22.8817 149.264 22.8513C148.654 22.8374 148.482 23.0503 148.504 23.6417C148.545 24.7224 148.534 25.8058 148.509 26.8892C148.474 28.542 147.284 29.7663 145.779 29.7249C144.329 29.6862 143.216 28.448 143.21 26.8367C143.202 24.1143 143.208 21.392 143.208 18.6668ZM148.512 15.1374C148.512 15.8892 148.512 16.6437 148.512 17.3955C148.512 17.6857 148.46 18.0367 148.909 18.0201C150.331 17.9731 151.765 18.1859 153.176 17.9068C154.582 17.6277 155.299 16.6741 155.307 15.1789C155.316 13.6616 154.555 12.6307 153.149 12.346C151.77 12.0668 150.37 12.2852 148.98 12.2216C148.569 12.2023 148.504 12.44 148.509 12.7799C148.52 13.5676 148.512 14.3525 148.512 15.1374Z" fill="#FCFCFE"/>
<path d="M15.8667 43.2897C15.9159 42.8254 15.5439 42.5905 15.3031 42.3058C11.4951 37.7925 7.70081 33.2654 3.85451 28.7852C-3.08578 20.6983 -0.527967 5.0744 12.3815 0.906562C23.3021 -2.61731 34.5702 6.08043 34.5975 17.6802C34.6085 22.1769 33.2762 26.0794 30.3135 29.4651C27.0691 33.1714 23.9149 36.9551 20.7361 40.7166C20.5391 40.9515 20.137 41.1257 20.3121 41.5679L20.3258 41.543C20.085 41.3495 20.0413 41.5983 19.94 41.7171C19.278 42.5186 18.5996 43.3091 17.954 44.1244C17.5354 44.6523 17.1579 44.6053 16.764 44.1244C16.5041 43.8038 16.3536 43.3644 15.8667 43.2897ZM31.9932 17.9206C31.9932 17.3651 32.0206 16.8041 31.985 16.2513C31.9522 15.7289 31.8975 15.201 31.7716 14.6953C30.2889 8.72264 26.6806 4.68747 20.758 3.14802C15.0761 1.67214 10.2395 3.54048 6.36035 7.86033C1.57026 13.1945 1.35962 21.5495 5.87888 27.0993C9.44341 31.4772 13.1502 35.7362 16.753 40.0809C17.2755 40.7111 17.5053 40.6171 17.9649 40.0671C21.4583 35.8855 24.9627 31.7093 28.4971 27.5581C30.8634 24.7777 32.0343 21.5716 31.9932 17.9206Z" fill="#FCFCFE"/>
<path d="M15.8667 43.2897C16.3536 43.3643 16.5041 43.8038 16.7667 44.1244C17.1606 44.6053 17.5381 44.6523 17.9567 44.1244C18.6023 43.3091 19.278 42.5186 19.9427 41.7171C20.0795 41.6756 20.2847 41.7945 20.3285 41.543L20.3148 41.5679C22.9601 41.1118 25.5973 40.6226 28.3028 40.7055C29.7992 40.7525 31.2792 40.8907 32.751 41.1422C33.8589 41.3329 34.3458 41.9327 34.1981 42.8392C34.0559 43.7126 33.3829 44.047 32.2312 43.8756C22.0711 42.3638 13.7137 45.5395 7.27404 53.6817C7.17282 53.8088 7.08802 53.9498 6.98406 54.0769C6.39043 54.8121 5.58889 54.9613 4.94602 54.4638C4.3305 53.9884 4.26758 53.1289 4.83386 52.3661C7.21112 49.1518 10.0753 46.4792 13.5359 44.4864C14.2909 44.0498 15.0897 43.6877 15.8667 43.2897Z" fill="#FCFCFE"/>
<path d="M20.3285 41.5429C20.2847 41.7944 20.0768 41.6756 19.9427 41.717C20.044 41.5954 20.0877 41.3494 20.3285 41.5429Z" fill="#FCFCFE"/>
<path d="M220.987 45.476C221.644 43.5109 222.21 41.7725 222.814 40.0478C222.951 39.6554 222.951 39.086 223.608 39.0943C224.289 39.0999 224.327 39.672 224.478 40.1114C225.058 41.8112 225.61 43.522 226.267 45.5147C226.8 43.9725 227.249 42.679 227.692 41.3855C227.895 40.7968 228.089 40.2081 228.278 39.6167C228.409 39.2076 228.669 39.0114 229.09 39.133C229.563 39.2712 229.541 39.6443 229.41 40.0092C228.614 42.2589 227.807 44.5031 227.011 46.7501C226.877 47.126 226.658 47.3996 226.248 47.3803C225.777 47.3554 225.629 46.9629 225.498 46.5843C224.951 44.9757 224.407 43.3644 223.86 41.7559C223.81 41.6122 223.75 41.474 223.6 41.0843C222.965 42.936 222.412 44.5556 221.857 46.1725C221.772 46.4185 221.696 46.6727 221.589 46.9104C221.463 47.1979 221.25 47.4107 220.916 47.3803C220.607 47.3526 220.372 47.184 220.259 46.8717C219.439 44.5612 218.615 42.2506 217.803 39.9401C217.68 39.5891 217.751 39.2602 218.134 39.1385C218.585 38.9948 218.87 39.2104 219.017 39.6609C219.567 41.3386 220.125 43.0134 220.683 44.6855C220.738 44.8679 220.817 45.0421 220.987 45.476Z" fill="#FCFCFE"/>
<path d="M145.229 40.7802C145.902 39.9621 146.485 39.2629 147.445 39.0998C147.883 39.0252 148.345 38.9506 148.471 39.5089C148.594 40.0561 148.173 40.2164 147.73 40.338C146.047 40.7996 145.213 41.9051 145.191 43.6905C145.18 44.6081 145.196 45.5257 145.183 46.4405C145.177 46.8496 145.095 47.2807 144.592 47.3056C144.031 47.3333 143.911 46.9076 143.911 46.4378C143.905 44.3428 143.894 42.2451 143.902 40.1501C143.905 39.7079 143.84 39.1358 144.502 39.1164C145.216 39.0943 145.172 39.6747 145.191 40.1667C145.199 40.3187 145.21 40.4652 145.229 40.7802Z" fill="#FCFCFE"/>
<path d="M197.647 40.7939C198.333 39.8873 198.952 39.2323 199.92 39.0775C200.328 39.0112 200.716 38.9559 200.828 39.5032C200.927 39.9896 200.689 40.2079 200.237 40.3323C198.429 40.8243 197.663 41.7888 197.584 43.6738C197.548 44.5554 197.576 45.4398 197.565 46.3243C197.559 46.7941 197.548 47.3358 196.911 47.3082C196.295 47.2833 196.29 46.7444 196.29 46.2745C196.287 44.2459 196.284 42.2145 196.29 40.1858C196.293 39.6966 196.246 39.1079 196.955 39.1135C197.603 39.119 197.562 39.6635 197.573 40.1278C197.576 40.2881 197.606 40.4456 197.647 40.7939Z" fill="#FCFCFE"/>
<path d="M155.02 46.247C153.661 47.4465 152.26 47.7809 150.684 47.101C149.718 46.6837 149.218 45.9319 149.215 44.8762C149.212 43.8287 149.675 43.0686 150.643 42.6292C151.86 42.0737 153.133 42.1621 154.372 42.4108C155.225 42.5822 155.173 42.2257 155.009 41.6536C154.744 40.7166 154.09 40.2578 153.163 40.1721C152.377 40.1003 151.609 40.1998 150.87 40.4955C150.525 40.6337 150.137 40.7498 149.956 40.291C149.754 39.7769 150.162 39.6111 150.534 39.4591C151.748 38.9671 153.004 38.8897 154.257 39.2131C155.433 39.5171 156.205 40.5508 156.265 41.9382C156.328 43.3782 156.298 44.8237 156.303 46.2691C156.306 46.7362 156.328 47.2724 155.704 47.3166C155.045 47.3608 155.149 46.7445 155.02 46.247ZM152.944 43.0935C152.377 43.0963 151.852 43.2206 151.341 43.4583C150.785 43.7154 150.498 44.1355 150.446 44.7463C150.394 45.3847 150.725 45.8076 151.212 46.1199C152.408 46.8882 154.388 46.2747 154.963 44.9729C155.403 43.9752 155.151 43.4804 154.087 43.2814C153.712 43.2096 153.327 43.1571 152.944 43.0935Z" fill="#FCFCFE"/>
<path d="M170.868 39.014C171.625 39.0223 172.342 39.2019 173.026 39.5253C173.398 39.7022 173.778 39.9122 173.579 40.3931C173.373 40.8878 172.977 40.7662 172.596 40.5617C172.017 40.2494 171.393 40.0421 170.739 40.0559C170.058 40.0697 169.396 40.2853 169.259 41.0647C169.128 41.8192 169.771 42.0569 170.307 42.2753C171.056 42.5793 171.847 42.7755 172.586 43.1044C173.376 43.4554 173.893 44.0635 173.86 45.0087C173.83 45.9429 173.406 46.6255 172.586 47.0567C171.341 47.7089 169.032 47.4049 167.981 46.4569C167.752 46.2469 167.56 46.0258 167.746 45.6969C167.932 45.3652 168.239 45.4039 168.515 45.5172C168.843 45.6527 169.147 45.8461 169.464 46.0037C170.033 46.2883 170.64 46.3657 171.264 46.3215C171.973 46.2718 172.547 45.9926 172.662 45.2132C172.772 44.4587 172.17 44.1851 171.636 43.9667C170.827 43.6378 169.951 43.4609 169.166 43.0878C167.869 42.4743 167.639 40.8326 168.643 39.7989C169.254 39.1715 170.033 39.0057 170.868 39.014Z" fill="#FCFCFE"/>
<path d="M236.468 46.3658C235.314 47.2641 234.134 47.698 232.761 47.3055C231.355 46.902 230.682 46.0287 230.748 44.6937C230.808 43.4638 231.705 42.5324 233.065 42.3196C234 42.1731 234.952 42.1731 235.869 42.3915C236.616 42.5684 236.648 42.2533 236.525 41.6922C236.331 40.7995 235.647 40.244 234.619 40.1638C233.831 40.103 233.068 40.2274 232.329 40.5148C231.968 40.6558 231.593 40.6917 231.454 40.2219C231.339 39.8349 231.593 39.6387 231.935 39.5005C233.278 38.9561 234.649 38.8096 236.017 39.3153C237.316 39.7963 237.77 40.8935 237.8 42.198C237.83 43.4749 237.822 44.7545 237.803 46.0314C237.795 46.4902 238.008 47.0844 237.354 47.289C236.649 47.5101 236.67 46.7998 236.468 46.3658ZM234.673 43.1322C233.88 43.1045 233.338 43.2096 232.841 43.4638C231.73 44.0332 231.656 45.3874 232.69 46.0812C233.916 46.9048 235.943 46.2912 236.495 44.9314C236.919 43.8867 236.703 43.4832 235.593 43.2787C235.212 43.2096 234.829 43.1571 234.673 43.1322Z" fill="#FCFCFE"/>
<path d="M194.172 43.1652C194.172 45.5974 192.402 47.4298 190.039 47.4408C187.664 47.4519 185.801 45.6057 185.801 43.2454C185.804 40.863 187.642 38.9753 189.976 38.9559C192.367 38.9393 194.172 40.7524 194.172 43.1652ZM192.952 43.2426C192.961 41.4986 191.669 40.1029 190.02 40.0753C188.362 40.0476 187.087 41.413 187.093 43.2094C187.098 44.9617 188.313 46.2717 189.957 46.2939C191.669 46.3187 192.944 45.0197 192.952 43.2426Z" fill="#FCFCFE"/>
<path d="M208.146 43.2592C208.132 40.8105 209.968 38.9394 212.373 38.9532C214.671 38.967 216.49 40.8077 216.525 43.1542C216.561 45.5007 214.69 47.4271 212.359 47.4409C209.941 47.4547 208.162 45.6886 208.146 43.2592ZM215.223 43.1929C215.215 41.4185 213.926 40.0587 212.269 40.0753C210.63 40.0919 209.399 41.413 209.391 43.1597C209.383 44.9839 210.666 46.316 212.408 46.2939C214.063 46.2746 215.229 44.9921 215.223 43.1929Z" fill="#FCFCFE"/>
<path d="M177.285 46.059C177.285 47.1148 177.294 48.0296 177.283 48.9445C177.277 49.3535 177.206 49.7764 176.692 49.804C176.12 49.8344 176 49.4116 176 48.9472C175.997 45.9623 175.994 42.9774 176.002 39.9925C176.002 39.5917 176.038 39.1578 176.563 39.108C177.135 39.0528 177.266 39.4535 177.296 39.9261C177.304 40.0505 177.34 40.1749 177.389 40.4319C178.333 39.4314 179.364 38.804 180.694 38.9726C181.66 39.0942 182.499 39.5005 183.148 40.2495C184.535 41.8498 184.494 44.6882 183.068 46.2249C181.567 47.8472 179.671 47.8279 177.285 46.059ZM182.869 43.157C182.855 41.3799 181.717 40.1113 180.122 40.1003C178.484 40.0864 177.184 41.4905 177.209 43.251C177.233 44.9784 178.503 46.3023 180.128 46.294C181.788 46.2829 182.882 45.0309 182.869 43.157Z" fill="#FCFCFE"/>
<path d="M160.065 40.3157C160.672 39.5557 161.361 39.1494 162.182 38.9918C164.023 38.6381 165.61 39.7657 165.755 41.6783C165.881 43.3089 165.804 44.9562 165.809 46.5951C165.809 46.9986 165.656 47.3192 165.199 47.3192C164.745 47.3192 164.589 47.0097 164.587 46.5979C164.581 45.3182 164.598 44.0386 164.578 42.7617C164.551 40.9984 163.812 40.1112 162.401 40.1029C160.951 40.0946 160.029 41.1532 160.021 42.8474C160.015 44.0275 160.015 45.2077 160.018 46.3878C160.018 46.8383 159.988 47.3054 159.408 47.3109C158.814 47.3137 158.809 46.8328 158.812 46.3906C158.812 44.326 158.803 42.2587 158.814 40.1941C158.817 39.7629 158.653 39.177 159.329 39.1135C160.07 39.0388 159.985 39.6607 160.065 40.3157Z" fill="#FCFCFE"/>
<path d="M121.385 43.1156C121.385 44.13 121.394 45.147 121.38 46.1614C121.372 46.7832 121.139 47.2752 120.436 47.289C119.687 47.3028 119.421 46.8219 119.421 46.1393C119.419 44.141 119.413 42.1428 119.419 40.1445C119.421 39.495 119.613 38.9312 120.368 38.9119C121.178 38.8925 121.388 39.4619 121.388 40.1666C121.385 41.1506 121.385 42.1345 121.385 43.1156Z" fill="#FCFCFE"/>
<path d="M114.938 40.2163C115.46 39.6636 115.81 39.1274 116.437 38.945C117.036 38.7709 117.572 38.8317 117.777 39.5116C117.971 40.1583 117.679 40.5839 117.028 40.7442C115.63 41.0869 114.981 42.0432 114.907 43.4306C114.858 44.3455 114.858 45.2631 114.85 46.1806C114.845 46.8218 114.62 47.311 113.923 47.311C113.181 47.311 112.954 46.8218 112.96 46.1254C112.976 44.1935 112.971 42.2588 112.962 40.3269C112.96 39.6774 112.951 39.0168 113.786 38.9063C114.612 38.793 114.801 39.4203 114.938 40.2163Z" fill="#FCFCFE"/>
<path d="M110.725 44.13C110.725 44.8514 110.725 45.5727 110.725 46.2968C110.725 46.7611 110.577 47.137 110.093 47.2835C109.633 47.4217 109.187 47.3167 109.001 46.8883C108.777 46.3687 108.585 46.5981 108.309 46.786C107.302 47.4714 106.211 47.6345 105.059 47.2448C103.913 46.8579 103.221 45.8463 103.292 44.7132C103.366 43.5137 104.094 42.6292 105.273 42.3335C106.268 42.082 107.272 42.1179 108.268 42.3225C108.859 42.4441 108.966 42.2174 108.796 41.7006C108.547 40.9433 107.97 40.6476 107.245 40.5619C106.52 40.4735 105.822 40.62 105.133 40.8217C104.632 40.9682 104.195 40.9046 104.028 40.3574C103.869 39.8378 104.124 39.4647 104.63 39.2906C105.913 38.8511 107.218 38.6659 108.55 39.0473C109.808 39.4066 110.547 40.2579 110.654 41.5735C110.722 42.4192 110.667 43.276 110.667 44.13C110.686 44.13 110.706 44.13 110.725 44.13ZM107.105 43.3506C106.807 43.4031 106.512 43.4252 106.236 43.5081C105.636 43.6906 105.196 44.0305 105.182 44.7408C105.171 45.4677 105.625 45.8021 106.233 45.9596C107.078 46.1752 107.839 45.9624 108.473 45.3571C108.889 44.9619 108.982 44.4285 108.851 43.9034C108.725 43.4031 108.224 43.5468 107.866 43.4722C107.614 43.4169 107.354 43.3893 107.105 43.3506Z" fill="#FCFCFE"/>
<path d="M130.624 44.0582C130.624 44.8127 130.624 45.5672 130.624 46.3217C130.624 46.7943 130.47 47.1619 129.978 47.2891C129.521 47.4079 129.081 47.3139 128.9 46.8662C128.676 46.3107 128.482 46.6092 128.222 46.7916C127.215 47.4908 126.124 47.6373 124.975 47.2393C123.798 46.833 123.185 45.9182 123.229 44.6994C123.27 43.5164 123.995 42.632 125.204 42.3308C126.165 42.0931 127.138 42.1014 128.101 42.3114C128.845 42.4745 128.876 42.1373 128.659 41.5762C128.386 40.8632 127.798 40.6365 127.122 40.5647C126.4 40.4873 125.7 40.6282 125.01 40.8411C124.542 40.9848 124.146 40.8853 123.96 40.4154C123.754 39.8986 123.987 39.4978 124.485 39.3182C125.959 38.7875 127.472 38.5941 128.952 39.2187C129.907 39.6222 130.492 40.4293 130.561 41.5016C130.613 42.3501 130.572 43.2069 130.572 44.0582C130.588 44.0582 130.607 44.0582 130.624 44.0582ZM127.032 43.3451C126.728 43.4004 126.362 43.4197 126.031 43.5358C125.472 43.732 125.079 44.1107 125.089 44.7629C125.1 45.4235 125.508 45.7579 126.085 45.932C126.9 46.178 127.634 45.9845 128.276 45.4622C128.744 45.0835 128.928 44.5363 128.804 43.9614C128.687 43.4087 128.148 43.5413 127.754 43.4612C127.532 43.4197 127.308 43.3893 127.032 43.3451Z" fill="#FCFCFE"/>
<path d="M67.6522 46.4625C66.5005 47.4078 65.2831 47.7007 63.9454 47.2364C62.6925 46.8025 62.1426 45.8794 62.2493 44.4892C62.3341 43.3947 63.1056 42.56 64.2928 42.3058C65.16 42.1206 66.0272 42.1178 66.9054 42.2698C67.1625 42.314 67.5263 42.5434 67.7014 42.2118C67.8546 41.9161 67.7096 41.5678 67.5181 41.2887C67.1516 40.7525 66.5962 40.5977 65.9944 40.5535C65.3023 40.501 64.6375 40.653 63.9837 40.8492C63.4503 41.0095 63.07 40.8105 62.9113 40.2992C62.7581 39.799 63.0645 39.4701 63.4913 39.3125C64.9658 38.7764 66.4786 38.5912 67.9531 39.2269C69.1595 39.7492 69.6109 40.8354 69.6355 42.0985C69.6629 43.3781 69.6328 44.655 69.6465 45.9346C69.6519 46.5178 69.6437 47.0899 68.9708 47.2944C68.306 47.4962 67.9394 47.0899 67.6522 46.4625ZM66.0491 43.3477C65.7974 43.3892 65.543 43.4306 65.2886 43.4748C64.5609 43.6075 64.0685 44.0359 64.0794 44.7877C64.0931 45.5671 64.6868 45.9098 65.3816 46.0065C66.0847 46.106 66.7412 45.9264 67.2856 45.4454C67.7315 45.0502 67.9476 44.5168 67.8026 43.9447C67.6713 43.4223 67.1269 43.5412 66.733 43.4583C66.5087 43.4168 66.2844 43.3864 66.0491 43.3477Z" fill="#FCFCFE"/>
<path d="M85.3325 47.441C83.3629 47.4437 81.8172 46.3382 81.2154 44.5307C80.63 42.7784 81.2209 40.7857 82.6543 39.6719C84.0823 38.5608 86.197 38.4862 87.6824 39.4701C88.2487 39.8433 88.7274 40.2993 88.287 40.9792C87.8739 41.6149 87.3049 41.3689 86.7578 41.0151C85.524 40.2164 84.3641 40.3573 83.5325 41.3606C82.7091 42.3528 82.7364 44.0332 83.5927 44.9839C84.4024 45.8849 85.7237 45.9983 86.8699 45.2244C87.3651 44.89 87.8903 44.5666 88.3171 45.1608C88.7466 45.7606 88.3773 46.2525 87.8383 46.6339C87.0642 47.1729 86.2353 47.4935 85.3325 47.441Z" fill="#FCFCFE"/>
<path d="M73.8702 39.9373C74.7976 38.9893 75.8563 38.5388 77.153 38.8981C78.4388 39.2546 79.1664 40.1943 79.2266 41.7642C79.2813 43.2401 79.243 44.7187 79.2376 46.1974C79.2348 46.8358 78.975 47.3195 78.2856 47.3195C77.536 47.3195 77.3226 46.8082 77.3254 46.1227C77.3308 44.8763 77.3445 43.627 77.2789 42.3833C77.2132 41.1479 76.5949 40.5481 75.5499 40.5619C74.4994 40.5757 73.8128 41.2971 73.7854 42.4938C73.7581 43.6436 73.7745 44.7933 73.7827 45.9403C73.7882 46.6617 73.6459 47.325 72.7815 47.3167C71.9772 47.3084 71.8158 46.67 71.8158 45.9901C71.813 44.0858 71.813 42.1815 71.8158 40.2773C71.8158 39.6582 71.8924 39.0474 72.6365 38.9092C73.3724 38.771 73.6514 39.3072 73.8702 39.9373Z" fill="#FCFCFE"/>
<path d="M94.3601 43.8038C93.6133 43.8038 92.8665 43.8176 92.1169 43.7982C91.578 43.7844 91.5315 43.9972 91.712 44.4533C92.1771 45.6168 93.5613 46.1945 94.8088 45.6915C95.137 45.5588 95.4407 45.3598 95.7471 45.1774C96.1547 44.9342 96.5924 44.8651 96.8742 45.2824C97.1641 45.7108 97.0192 46.1364 96.628 46.4985C95.241 47.7782 92.5519 47.7671 91.0418 46.4515C89.4497 45.0641 89.1296 42.4744 90.3223 40.6254C91.4494 38.8787 93.6379 38.2457 95.4489 39.2075C96.8359 39.9455 97.4569 41.2058 97.5143 42.7563C97.5389 43.4334 97.1806 43.7927 96.5021 43.7982C95.7881 43.8038 95.0714 43.7982 94.3574 43.7982C94.3601 43.801 94.3601 43.8038 94.3601 43.8038ZM93.5531 42.5103C93.5531 42.5075 93.5531 42.5048 93.5531 42.5048C94.0373 42.5048 94.5243 42.4771 95.0057 42.5103C95.676 42.5573 95.6842 42.245 95.4845 41.7447C95.1535 40.9128 94.5872 40.3932 93.6762 40.3683C92.7215 40.3435 92.1279 40.8879 91.7284 41.7116C91.474 42.2339 91.4467 42.5794 92.1962 42.5158C92.6476 42.4799 93.1017 42.5103 93.5531 42.5103Z" fill="#FCFCFE"/>
<path d="M138.045 42.9829C138.045 42.4578 138.032 41.9327 138.048 41.4075C138.07 40.805 138.147 40.2053 137.269 40.1638C137.011 40.1528 136.905 39.8819 136.929 39.6387C136.957 39.4038 137.102 39.155 137.353 39.1716C138.128 39.2214 138.018 38.7045 138.054 38.207C138.092 37.6349 137.777 36.7063 138.645 36.6842C139.613 36.6565 139.334 37.6266 139.312 38.2126C139.285 38.9256 139.454 39.2628 140.218 39.1467C140.568 39.0942 140.932 39.1302 141.287 39.1412C141.61 39.1523 141.864 39.2711 141.878 39.6498C141.892 40.0146 141.676 40.1804 141.347 40.2302C141.252 40.244 141.153 40.2495 141.057 40.2578C139.329 40.3988 139.331 40.3988 139.331 42.2146C139.331 43.0354 139.326 43.8563 139.331 44.6771C139.339 45.9264 139.681 46.2608 140.891 46.2525C141.246 46.2498 141.75 46.0093 141.843 46.6063C141.938 47.2226 141.391 47.242 141.003 47.3332C139.375 47.7146 138.245 46.9214 138.089 45.2437C138.021 44.4975 138.078 43.7374 138.078 42.9829C138.07 42.9829 138.059 42.9829 138.045 42.9829Z" fill="#FCFCFE"/>
<path d="M203.041 43.1681C203.041 42.5435 203.036 41.9216 203.044 41.297C203.05 40.7635 203.123 40.2163 202.319 40.2108C202.029 40.208 201.873 39.9593 201.892 39.6525C201.909 39.4065 202.007 39.1495 202.275 39.1688C203.184 39.2352 203 38.5967 203.05 38.0578C203.099 37.5299 202.74 36.662 203.635 36.6648C204.489 36.6676 204.3 37.5299 204.237 38.0605C204.119 39.0417 204.565 39.1854 205.391 39.1605C205.889 39.1467 206.795 38.7902 206.789 39.6884C206.784 40.5424 205.897 40.2578 205.383 40.2301C204.53 40.1859 204.158 40.3987 204.237 41.3522C204.327 42.4605 204.245 43.5827 204.259 44.6965C204.275 45.9402 204.625 46.2746 205.845 46.2359C206.226 46.2249 206.715 46.0673 206.792 46.6201C206.874 47.2088 206.324 47.2585 205.933 47.3442C204.149 47.7339 203.03 46.7942 203.033 44.9342C203.033 44.3427 203.033 43.754 203.033 43.1625C203.036 43.1681 203.039 43.1681 203.041 43.1681Z" fill="#FCFCFE"/>
<path d="M54.0287 41.6755C55.5908 40.1057 56.9695 38.7238 58.3455 37.3419C58.6218 37.0655 58.8762 36.7615 59.1717 36.51C59.6176 36.1341 60.1319 36.0263 60.5723 36.4823C61.0183 36.9466 60.8869 37.4607 60.4684 37.8781C59.5437 38.7984 58.6164 39.7215 57.6507 40.5949C57.2157 40.9873 57.1938 41.2416 57.5823 41.6976C58.6164 42.9165 59.5848 44.1906 60.5888 45.4371C61.0374 45.9954 61.3657 46.5868 60.6462 47.1258C59.9404 47.6564 59.4589 47.1811 59.0267 46.6172C58.0939 45.3984 57.12 44.21 56.209 42.9745C55.8506 42.4853 55.6291 42.5627 55.2297 42.9137C54.3789 43.66 53.777 44.4753 54.026 45.6969C54.0643 45.8848 54.0369 46.0894 54.0287 46.2856C54.0014 46.9517 53.6567 47.3552 52.9919 47.322C52.3764 47.2916 52.0919 46.8881 52.0946 46.2607C52.1001 44.3233 52.0946 42.3886 52.0946 40.4512C52.0946 39.4009 52.1001 38.3507 52.0946 37.3004C52.0919 36.626 52.4065 36.2142 53.0767 36.2253C53.7524 36.2336 54.0315 36.6786 54.0287 37.3363C54.026 38.7017 54.0287 40.0698 54.0287 41.6755Z" fill="#FCFCFE"/>
<path d="M120.414 37.8173C119.818 37.7482 119.336 37.5298 119.334 36.8278C119.331 36.1479 119.75 35.8246 120.382 35.8218C121.003 35.819 121.446 36.1203 121.465 36.8002C121.481 37.4912 121.035 37.7565 120.414 37.8173Z" fill="#FCFCFE"/>
<path d="M101.432 41.6258C101.432 43.1017 101.418 44.5803 101.437 46.0562C101.445 46.7748 101.243 47.3442 100.444 47.3221C99.7083 47.3027 99.5141 46.7389 99.5141 46.0756C99.5195 43.0575 99.5195 40.0366 99.5141 37.0185C99.5113 36.3055 99.7439 35.7223 100.521 35.7389C101.248 35.7555 101.44 36.3331 101.434 36.9992C101.424 38.5414 101.432 40.0836 101.432 41.6258Z" fill="#FCFCFE"/>
<path d="M106.714 18.0255C107.234 18.0255 107.751 18.0145 108.271 18.0283C109.762 18.0615 110.826 19.0896 110.859 20.513C110.889 21.8976 109.833 23.1082 108.419 23.1883C107.256 23.2547 106.082 23.2574 104.92 23.1856C103.473 23.0971 102.488 21.917 102.556 20.4798C102.622 19.0481 103.609 18.078 105.062 18.0311C105.612 18.0117 106.164 18.0255 106.714 18.0255Z" fill="#FCFCFE"/>
<path d="M29.3534 17.2295C29.3206 24.0313 23.9998 29.3517 17.251 29.3295C10.669 29.3102 5.25795 23.7715 5.31539 17.1135C5.37284 10.3836 10.8058 5.01347 17.5108 5.05493C24.0873 5.09638 29.3862 10.5439 29.3534 17.2295ZM17.3467 26.5961C22.4705 26.5989 26.6889 22.3924 26.708 17.2599C26.7272 12.075 22.5034 7.78558 17.3768 7.78282C12.2174 7.78005 8.0182 12.0225 8.02914 17.2323C8.03735 22.3896 12.2201 26.5934 17.3467 26.5961Z" fill="#FCFCFE"/>
<path d="M18.1317 15.1567C18.1317 15.3529 18.1563 15.5547 18.1262 15.7454C17.932 16.9559 18.3041 17.9122 19.3053 18.628C19.5652 18.8132 19.8087 19.062 19.9783 19.3328C20.3421 19.9132 20.3695 20.5351 19.8442 21.0298C19.3272 21.519 18.7035 21.5549 18.1755 21.0657C17.3849 20.3388 16.6408 19.5594 15.8967 18.7856C15.6368 18.5147 15.604 18.1444 15.6067 17.774C15.6149 16.3313 15.6012 14.8886 15.6122 13.4486C15.6204 12.4564 16.0663 11.9479 16.887 11.9534C17.6885 11.9589 18.1126 12.4758 18.1317 13.4846C18.1427 14.0429 18.1344 14.5984 18.1317 15.1567Z" fill="#FCFCFE"/>
</g>
<defs>
<clipPath id="clip0_2_644">
<rect width="238" height="55" fill="white"/>
</clipPath>
</defs>
</svg>
